<svg width="160" height="160" viewBox="0 0 160 160" fill="none" xmlns="http://www.w3.org/2000/svg">
  <rect width="160" height="160" rx="16" fill="#1886C8"/>
  <path d="M100.69 84.7348C100.319 87.3009 99.1754 90.0077 98.0015 91.9056C95.8891 95.3217 94.5819 95.9461 93.6211 97.3367C93.0486 97.5151 92.6247 98.0469 91.9873 98.4937C86.7513 102.152 83.0467 102.082 76.6044 102.04L71.3887 102.12L71.3843 95.8159V81.0264H71.3754L71.3607 58.8677C79.7966 58.7542 85.0329 58.0686 91.8792 62.7376C94.6983 64.6581 94.8796 65.3926 95.9361 66.2987C96.2138 66.5366 95.9164 66.354 96.2326 66.5006C96.6142 67.2999 97.9007 68.6465 99.024 70.8539C99.4404 71.6732 99.7902 72.4822 100.081 73.3458C100.366 74.1953 100.553 75.4205 100.834 76.1219C101.145 79.3658 101.274 81.5038 100.69 84.7348ZM71.1282 81.0264C71.1588 80.8626 71.1922 80.7401 71.23 80.6723L71.231 81.0264H71.1282ZM109.733 61.5565L112.395 58.7512L116.531 54.3933C115.706 53.2617 114.606 51.949 114.156 51.7298C113.203 49.649 106.504 44.8301 103.585 43.0346C99.7813 40.694 95.0787 38.6267 90.0796 37.1842C87.319 36.3878 85.0609 36.0806 82.1002 35.5838C79.7616 35.1897 66.3283 35.3862 62.8692 35.3862C60.5052 35.3862 55.1032 35.1039 53.1046 35.4611C52.9106 36.1437 52.8908 58.7668 52.9268 81.0264V95.8159H52.9586C53.0009 111.627 53.0575 124.361 53.0811 124.426C56.0443 124.705 72.5337 124.497 76.8953 124.497C86.0433 124.497 90.0663 124.819 97.998 121.728C100.757 120.653 103.579 119.027 105.734 117.565C111.986 113.325 119.422 105.158 121.645 97.6667C122.478 96.2936 124.4 89.5143 124.237 87.7671C125.169 86.5149 124.855 77.2316 124.634 75.232C124.499 73.3096 123.482 67.4395 122.695 66.1764C122.418 64.7957 121.664 63.2264 120.97 61.8224L113.599 61.6473L109.733 61.5565Z" fill="white"/>
  <path d="M50.1249 67.9541L50.1131 55.3207L50.1249 52.3078L50.1141 35.5262C49.1873 35.8509 42.1283 43.3973 41.5739 43.9997C40.2069 45.4851 38.7935 46.8026 37.4221 48.1887C36.5539 49.0659 33.7239 51.8119 33.2516 52.6207C32.5195 53.0085 27.4933 58.1465 26.9415 58.8959C25.996 59.6768 26.3955 62.5269 26.3898 64.0466C26.3828 65.9398 26.3331 67.8839 26.3863 69.7701C26.5405 74.7567 26.3872 79.9847 26.3837 84.999C26.3818 87.5445 26.3827 90.089 26.3818 92.6339C26.3818 95.3343 26.287 97.2837 26.0618 99.8521C25.4369 101.251 25.3641 102.36 23.7872 102.906C21.3583 103.749 11.0952 103.421 8.00383 103.423L8 124.575C12.8865 124.879 18.6698 124.609 23.631 124.609C29.0973 124.609 32.8079 124.777 37.3871 122.554C44.4182 119.141 49.1937 111.072 49.976 103.45C50.4296 102.027 50.1303 88.5967 50.1303 85.8874C50.1303 79.9379 50.0104 73.8893 50.1249 67.9541Z" fill="white"/>
  <path fill-rule="evenodd" clip-rule="evenodd" d="M113.641 59.9326L136.989 35.332L152 35.6104L151.961 124.188L127.522 124.312L127.482 60.2599L113.641 59.9326Z" fill="white"/>
</svg>
