<svg xmlns="http://www.w3.org/2000/svg" viewBox="0 0 196 147" fill="none">
  <path d="M125.482 65.6827C124.988 69.0911 123.469 72.6846 121.91 75.2063C119.104 79.7423 117.369 80.5737 116.093 82.4194C115.333 82.6571 114.769 83.3627 113.922 83.9557C106.967 88.8132 102.047 88.7204 93.4893 88.6663L86.5621 88.7699L86.5566 80.4004V60.7566H86.5442L86.5243 31.3274C97.7303 31.1774 104.685 30.2672 113.779 36.4666C117.522 39.019 117.764 39.9919 119.166 41.197C119.535 41.5138 119.14 41.271 119.559 41.4663C120.067 42.5257 121.776 44.316 123.268 47.2471C123.822 48.335 124.286 49.4084 124.672 50.557C125.051 51.685 125.298 53.3128 125.672 54.2437C126.086 58.5513 126.256 61.3905 125.482 65.6827ZM86.2161 60.7566C86.2562 60.5404 86.3026 60.3767 86.3521 60.2863V60.7566H86.2161ZM137.493 34.8983L141.028 31.1727L146.522 25.3845C145.426 23.8824 143.966 22.1396 143.366 21.8482C142.1 19.0826 133.203 12.6854 129.325 10.2989C124.274 7.18973 118.028 4.44519 111.389 2.53018C107.721 1.47196 104.723 1.06326 100.788 0.40168C97.684-.119644 79.8426.140236 75.247.140236C72.107.140236 64.9324-.234215 62.2775.240738C62.0188 1.1474 61.9934 31.1949 62.041 60.7566V80.4004H62.0831C62.138 101.399 62.2155 118.312 62.2463 118.396C66.1815 118.768 88.0828 118.491 93.8769 118.491C106.028 118.491 111.37 118.92 121.904 114.814C125.57 113.385 129.318 111.226 132.181 109.285C140.485 103.655 150.362 92.8068 153.314 82.8577C154.42 81.0335 156.972 72.0308 156.756 69.7094C157.992 68.0473 157.576 55.7184 157.283 53.0619C157.103 50.5087 155.754 42.7123 154.706 41.0357C154.341 39.2002 153.338 37.1161 152.417 35.2506L142.627 35.0187L137.493 34.8983Z" fill="#fff"/>
  <path d="M58.3194 43.3957L58.3049 26.6169L58.3194 22.6154L58.3049.327644C57.0757.758179 47.6978 10.7809 46.9634 11.5796C45.1477 13.5531 43.2682 15.3049 41.449 17.1427C40.2949 18.3081 36.5362 21.9558 35.9089 23.0296C34.936 23.5451 28.2598 30.3698 27.5273 31.3637C26.2727 32.4016 26.8018 36.1857 26.794 38.2059C26.785 40.7194 26.7188 43.3026 26.7897 45.8075C26.995 52.4311 26.7909 59.3735 26.7862 66.0333C26.7842 69.4129 26.785 72.7937 26.7842 76.1733C26.7842 79.7594 26.658 82.3485 26.3588 85.7601C25.5293 87.6166 25.4311 89.091 23.338 89.8169C20.1119 90.9355 6.48085 90.5003 2.37342 90.5038L2.36914 118.595C8.85874 118.999 16.5414 118.641 23.1295 118.641C30.3902 118.641 35.3194 118.864 41.4014 115.91C50.7408 111.379 57.0835 100.662 58.1218 90.5381C58.7246 88.6472 58.3284 70.8113 58.3284 67.212C58.3284 59.3119 58.1682 51.2778 58.3194 43.3957Z" fill="#fff"/>
  <path fill-rule="evenodd" clip-rule="evenodd" d="M142.682 32.741L173.692.0677567 193.63.439064 193.579 118.081 161.119 118.247 161.065 33.1762 142.682 32.741Z" fill="#1886c8"/>
  <path fill-rule="evenodd" clip-rule="evenodd" d="M177.017 130.526L182.977 146.184 186.315 146.157C186.911 145.338 190.162 136.703 190.895 134.651C191.108 134.06 191.346 133.33 191.547 132.703L192.312 130.8L192.237 146.19 195.999 146.182 195.989 126.947 189.754 127.041C188.962 129.381 188.004 131.75 187.135 134.018C186.257 136.305 185.564 138.844 184.726 140.982C184.219 140.188 182.598 135.171 182.075 133.796C181.515 132.318 180.094 128.007 179.298 126.952L173.381 127.034 173.371 146.177 177.198 146.102 177.017 130.526Z" fill="#fff"/>
  <path fill-rule="evenodd" clip-rule="evenodd" d="M.00315096 146.121L3.78835 146.183 3.70964 130.34 11.612 146.174 17.9275 146.192 17.9294 126.964 14.235 126.954 14.2837 142.552C13.6607 141.906 10.9991 136.124 10.3087 134.782C9.53023 133.27 7.14692 128.038 6.17714 126.983L0 126.965.00315096 146.121Z" fill="#fff"/>
  <path fill-rule="evenodd" clip-rule="evenodd" d="M159.023 127.104C155.677 127.532 154.497 127.967 153.762 131.042C153.193 133.417 153.155 137.123 153.345 139.685C153.571 142.748 154.072 144.768 156.512 145.583C158.644 146.296 162.505 146.366 164.871 146.06C168.092 145.645 169.389 145.053 170.023 142.123C170.527 139.799 170.606 136.007 170.397 133.486C170.146 130.451 169.721 128.448 167.255 127.566C165.132 126.808 161.32 126.81 159.023 127.104ZM157.088 139.431C156.976 137.708 157.02 135.777 157.121 134.046C157.239 132.006 157.123 130.785 159.038 130.342C160.308 130.048 163.001 130.052 164.344 130.25C166.439 130.563 166.488 131.414 166.64 133.703C166.751 135.356 166.757 137.53 166.643 139.181C166.498 141.317 166.542 142.393 164.52 142.837C163.299 143.104 160.527 143.091 159.256 142.837C157.283 142.444 157.219 141.453 157.088 139.431Z" fill="#fff"/>
  <path fill-rule="evenodd" clip-rule="evenodd" d="M26.7633 127.139C23.379 127.642 22.3652 128.017 21.6716 131.247C21.1371 133.737 21.0962 137.353 21.3183 139.935C21.5933 143.14 22.0948 144.799 24.6636 145.65C26.7598 146.345 30.7581 146.352 33.0573 146.024C36.2296 145.57 37.3923 144.997 38.0208 141.907C38.5023 139.543 38.5545 135.732 38.3235 133.254C38.0375 130.196 37.6066 128.321 35.0101 127.487C32.7436 126.76 29.1334 126.788 26.7633 127.139ZM27.9715 130.197C29.2892 130.037 31.9718 130.035 33.1138 130.427C34.6602 130.958 34.5893 132.943 34.6326 134.752C34.7674 140.245 35.0986 142.657 31.5865 142.969C25.2492 143.533 25.1487 142.262 25.0049 138.399C24.9398 136.665 24.9893 134.602 25.1561 132.936C25.3817 130.689 25.7218 130.474 27.9715 130.197Z" fill="#fff"/>
  <path fill-rule="evenodd" clip-rule="evenodd" d="M109.945 140.264C110.322 145.649 111.203 146.348 118.999 146.192C121.202 146.149 123.849 145.847 124.76 144.416C125.66 143.001 125.819 139.639 125.313 137.789C124.086 133.299 115.486 136.151 114.122 133.908C113.736 133.273 112.699 130.033 116.916 129.886C122.306 129.7 120.819 130.868 121.591 132.663L125.084 132.68C125.173 126.641 121.825 126.827 116.383 126.958C114.16 127.011 111.904 127.273 110.903 128.743C109.859 130.279 109.827 132.917 110.291 134.897C111.343 139.365 118.315 137.057 121.021 138.45C122.353 139.134 122.413 142.606 120.335 143.126C118.607 143.559 115.617 143.372 113.971 142.813L113.591 140.194 109.945 140.264Z" fill="#fff"/>
  <path fill-rule="evenodd" clip-rule="evenodd" d="M89.8008 146.163L93.7847 146.188 94.9696 142.569 103.212 142.551 104.367 146.184 108.239 146.157 101.787 126.98 96.1559 126.961 89.8008 146.163ZM95.8442 139.951C96.422 137.611 98.1205 132.158 99.1023 130.124L102.287 139.893 100.797 139.955 98.4563 139.956 95.8442 139.951Z" fill="#fff"/>
  <path fill-rule="evenodd" clip-rule="evenodd" d="M147.328 139.432C147.516 143.397 145.341 143.257 141.643 142.978C138.026 142.705 138.617 140.273 138.53 136.833C138.412 132.244 138.336 130.538 141.189 130.208C146.728 129.566 147.087 130.66 147.189 133.422L150.908 133.395C150.89 130.631 150.66 128.429 148.522 127.574C146.326 126.693 137.38 126.059 135.624 129.54C134.602 131.568 134.727 134.362 134.787 136.833C134.943 143.151 134.891 145.971 141.597 146.182C148.27 146.394 151.126 146.454 151.075 139.43L147.328 139.432Z" fill="#fff"/>
  <path fill-rule="evenodd" clip-rule="evenodd" d="M80.8914 139.432L77.1343 139.424C77.3197 142.752 76.3741 143.335 71.4617 142.978C67.8577 142.717 68.4386 140.263 68.3459 136.833C68.3085 135.447 68.2976 133.719 68.524 132.402C68.8185 130.674 69.2771 130.414 71.0156 130.209C76.2261 129.595 76.9087 130.502 77.0073 133.321L80.7212 133.451C80.6783 130.636 80.4574 128.537 78.5256 127.661C76.6328 126.802 73.3791 126.843 71.1578 127.012C64.7453 127.503 64.4286 130.241 64.5942 136.313C64.6549 138.528 64.7169 141.676 65.449 143.586C66.907 147.387 76.7474 146.269 78.5775 145.544C80.7158 144.696 80.9366 142.189 80.8914 139.432Z" fill="#fff"/>
  <path fill-rule="evenodd" clip-rule="evenodd" d="M39.8316 130.217L45.3807 130.361 45.3682 146.19 49.0759 146.198 49.0704 130.338 54.8435 130.339 54.8513 126.955 39.8262 126.966 39.8316 130.217Z" fill="#fff"/>
  <path fill-rule="evenodd" clip-rule="evenodd" d="M83.7383 146.163L87.4791 146.115 87.4911 126.958 83.7636 127.081 83.7383 146.163Z" fill="#fff"/>
  <path fill-rule="evenodd" clip-rule="evenodd" d="M57.5117 146.206L61.2194 146.124 61.2404 126.973 57.5184 126.935 57.5117 146.206Z" fill="#fff"/>
  <path fill-rule="evenodd" clip-rule="evenodd" d="M57.4023 123.554L57.7246 125.044 63.0095 124.236C63.1232 123.312 62.8228 122.648 62.5411 121.788L57.4023 123.554Z" fill="#fff"/>
  <path fill-rule="evenodd" clip-rule="evenodd" d="M128.467 146.147L131.745 146.211 131.734 145.151 131.731 143.852 131.73 142.788 128.477 142.94 128.467 146.147Z" fill="#fff"/>
</svg>
