<svg xmlns="http://www.w3.org/2000/svg" viewBox="0 0 82 63" fill="none">
  <path d="M51.5065 27.4795C51.3 28.9054 50.6646 30.4088 50.0123 31.4638C48.8381 33.3615 48.1126 33.7094 47.5784 34.4816C47.2606 34.581 47.0245 34.8762 46.6701 35.1243C43.7605 37.1565 41.7024 37.1177 38.1219 37.0951L35.2238 37.1384L35.2215 33.6369V25.4186H35.2163L35.208 13.1063C39.8963 13.0436 42.8057 12.6628 46.6105 15.2564C48.1765 16.3243 48.2775 16.7313 48.8644 17.2355C49.0187 17.368 48.8533 17.2664 49.0289 17.3481C49.2411 17.7913 49.9563 18.5403 50.5805 19.7666C50.812 20.2218 51.0061 20.6708 51.1678 21.1514C51.3263 21.6233 51.4298 22.3043 51.5859 22.6938C51.7592 24.496 51.8304 25.6838 51.5065 27.4795ZM35.0791 25.4186C35.0959 25.3281 35.1153 25.2596 35.136 25.2218V25.4186H35.0791ZM56.5315 14.6003L58.0105 13.0416L60.3089 10.62C59.8505 9.99162 59.2396 9.26249 58.9887 9.14056C58.4593 7.98354 54.7368 5.30714 53.1144 4.30873C51.0011 3.00794 48.3881 1.85971 45.6106 1.05853C44.0761 0.615809 42.8216 0.444823 41.1757 0.168038C39.8768 -0.0500648 32.4126 0.0586597 30.4899 0.0586597C29.1763 0.0586597 26.1747 -0.0979978 25.0639 0.100707C24.9557 0.480024 24.9451 13.0509 24.965 25.4186V33.6369H24.9826C25.0056 42.4221 25.038 49.4977 25.0509 49.5329C26.6973 49.6886 35.86 49.5727 38.2841 49.5727C43.3676 49.5727 45.6028 49.7523 50.0098 48.0344C51.5435 47.4365 53.1117 46.5331 54.3094 45.7214C57.7833 43.3658 61.9155 38.8273 63.1506 34.665C63.6135 33.9018 64.6809 30.1353 64.5908 29.1641C65.1078 28.4687 64.9337 23.3107 64.8113 22.1993C64.736 21.1312 64.1713 17.8694 63.7332 17.168C63.5803 16.4001 63.1607 15.5281 62.7754 14.7477L58.6796 14.6507L56.5315 14.6003Z" fill="#fff"/>
  <path d="M23.4077 18.1553L23.4017 11.1356L23.4077 9.46155L23.4017 0.137072C22.8874 0.317194 18.964 4.51038 18.6568 4.84454C17.8971 5.67017 17.1108 6.40305 16.3497 7.17195C15.8669 7.65951 14.2944 9.18558 14.0319 9.63482C13.6249 9.85048 10.8318 12.7057 10.5253 13.1215C10.0005 13.5558 10.2218 15.1389 10.2186 15.9841C10.2148 17.0356 10.1871 18.1164 10.2168 19.1644C10.3027 21.9355 10.2173 24.8399 10.2153 27.6262C10.2145 29.0401 10.2148 30.4545 10.2145 31.8684C10.2145 33.3687 10.1617 34.4519 10.0365 35.8792C9.68944 36.6559 9.64837 37.2727 8.7727 37.5764C7.423 38.0444 1.72021 37.8623 0.00179084 37.8638L0 49.6164C2.71504 49.7855 5.92919 49.6353 8.68547 49.6353C11.7231 49.6353 13.7853 49.7287 16.3298 48.4931C20.2371 46.5972 22.8907 42.1139 23.3251 37.8782C23.5773 37.0871 23.4115 29.6251 23.4115 28.1193C23.4115 24.8142 23.3445 21.453 23.4077 18.1553Z" fill="#fff"/>
  <path d="M58.7019 13.6978L71.6757 0.0283685L80.017 0.183712L79.9958 49.4011L66.4155 49.4709L66.393 13.8798L58.7019 13.6978Z" fill="#fff"/>
  <path d="M74.0584 56.3526L76.5517 62.9032L77.9485 62.8922C78.1976 62.5493 79.5579 58.9369 79.8647 58.0784C79.9535 57.8312 80.0533 57.5258 80.1374 57.2633L80.4575 56.4672L80.4261 62.9059L81.9999 62.9024L81.9958 54.8551L79.3874 54.8944C79.0557 55.8734 78.655 56.8646 78.2913 57.8137C77.9241 58.7702 77.6344 59.8323 77.2836 60.7269C77.0716 60.3947 76.3933 58.296 76.1747 57.7207C75.9405 57.1021 75.3458 55.2986 75.0126 54.8574L72.5374 54.8916L72.5331 62.9005L74.1342 62.8691L74.0584 56.3526Z" fill="#fff"/>
  <path d="M.00131826 62.8768L1.58492 62.9027L1.55199 56.2747L4.85809 62.899L7.50028 62.9068L7.50107 54.8623L5.95545 54.858L5.97582 61.3838C5.71517 61.1136 4.60167 58.6947 4.31282 58.1331C3.98714 57.5007 2.99004 55.3118 2.58431 54.8701L0 54.8627L.00131826 62.8768Z" fill="#fff"/>
  <path d="M66.53 54.9207C65.1304 55.1 64.6365 55.2821 64.3292 56.5684C64.0912 57.5619 64.0751 59.1126 64.1545 60.1842C64.2494 61.4659 64.459 62.3109 65.4797 62.6519C66.3715 62.95 67.9869 62.9797 68.9767 62.8516C70.3241 62.6779 70.8669 62.4303 71.1321 61.2043C71.3429 60.2321 71.3762 58.6454 71.2888 57.5911C71.1835 56.3213 71.0057 55.4831 69.9743 55.1144C69.0858 54.7968 67.4911 54.7978 66.53 54.9207ZM65.7205 60.0783C65.6739 59.3571 65.6923 58.5494 65.7343 57.8253C65.7837 56.9718 65.7353 56.4608 66.5365 56.2755C67.0679 56.1526 68.1944 56.154 68.7563 56.2372C69.6328 56.3679 69.6532 56.7243 69.7169 57.6816C69.7631 58.3734 69.7658 59.2826 69.7182 59.9735C69.6573 60.8671 69.6759 61.3171 68.8297 61.503C68.3192 61.6148 67.1593 61.6092 66.6274 61.503C65.8023 61.3385 65.7754 60.924 65.7205 60.0783Z" fill="#fff"/>
  <path d="M11.1968 54.9355C9.78091 55.1458 9.35676 55.3028 9.0666 56.654C8.84296 57.6959 8.82585 59.2088 8.91876 60.289C9.03384 61.6299 9.24363 62.324 10.3183 62.6799C11.1953 62.9704 12.8681 62.9736 13.83 62.8363C15.1572 62.6464 15.6436 62.4066 15.9065 61.1138C16.108 60.1251 16.1298 58.5304 16.0332 57.494C15.9135 56.2145 15.7332 55.43 14.647 55.0811C13.6988 54.7771 12.1884 54.7885 11.1968 54.9355ZM11.7023 56.215C12.2535 56.148 13.3759 56.147 13.8536 56.3112C14.5006 56.5334 14.4709 57.3637 14.489 58.1205C14.5454 60.4184 14.684 61.4276 13.2146 61.5583C10.5633 61.7944 10.5213 61.2626 10.4611 59.6463C10.4339 58.9209 10.4546 58.0578 10.5244 57.3609C10.6188 56.4206 10.7611 56.3306 11.7023 56.215Z" fill="#fff"/>
  <path d="M45.9977 60.4264C46.1553 62.6795 46.524 62.972 49.7856 62.9068C50.7071 62.8888 51.8146 62.7622 52.1958 62.1638C52.5724 61.5719 52.6385 60.165 52.4268 59.391C51.9135 57.5127 48.3158 58.7057 47.7453 57.7676C47.5836 57.5019 47.1496 56.1464 48.9142 56.0849C51.169 56.0068 50.5467 56.4957 50.8698 57.2465L52.3311 57.2539C52.3686 54.7272 50.9676 54.805 48.691 54.8599C47.7609 54.8821 46.8169 54.9916 46.3983 55.6067C45.9616 56.2494 45.9483 57.3528 46.1423 58.1812C46.5822 60.0507 49.4992 59.0851 50.6313 59.6677C51.1884 59.9537 51.2139 61.4064 50.3444 61.6241C49.6216 61.8053 48.3704 61.7267 47.6819 61.4928L47.5229 60.3972L45.9977 60.4264Z" fill="#fff"/>
  <path d="M37.5697 62.8946L39.2364 62.9052L39.7321 61.391L43.1805 61.3835L43.6638 62.9033L45.2838 62.8922L42.5844 54.869L40.2285 54.861L37.5697 62.8946ZM40.0981 60.2954C40.3398 59.3167 41.0504 57.0355 41.4612 56.1844L42.7934 60.2713L42.1701 60.2973L41.1909 60.2978L40.0981 60.2954Z" fill="#fff"/>
  <path d="M61.6368 60.0785C61.7153 61.7375 60.8056 61.6788 59.2582 61.5619C57.7453 61.4477 57.9926 60.4302 57.9561 58.9913C57.9065 57.0711 57.8747 56.3576 59.0683 56.2194C61.3859 55.9509 61.536 56.4085 61.5786 57.564L63.1345 57.553C63.127 56.3964 63.031 55.4751 62.1364 55.1175C61.2177 54.7491 57.475 54.4836 56.7404 55.9398C56.3125 56.7883 56.3651 57.9572 56.3901 58.991C56.4553 61.6345 56.4334 62.814 59.2391 62.9024C62.0309 62.9909 63.2259 63.0164 63.2046 60.0778L61.6368 60.0785Z" fill="#fff"/>
  <path d="M33.8422 60.0786L32.2703 60.0753C32.3479 61.4676 31.9523 61.7116 29.8971 61.5623C28.3893 61.4529 28.6323 60.4261 28.5935 58.991C28.5779 58.4115 28.5733 57.6884 28.668 57.1376C28.7913 56.4145 28.9831 56.3058 29.7104 56.2199C31.8903 55.963 32.1759 56.3423 32.2172 57.522L33.7709 57.5761C33.753 56.3987 33.6606 55.5204 32.8524 55.154C32.0605 54.7944 30.6992 54.8115 29.7699 54.8823C27.0872 55.0878 26.9547 56.2332 27.0239 58.7737C27.0494 59.7002 27.0753 61.0175 27.3816 61.8164C27.9915 63.4069 32.1085 62.9388 32.8741 62.6357C33.7687 62.2808 33.8611 61.232 33.8422 60.0786Z" fill="#fff"/>
  <path d="M16.6639 56.2231L18.9854 56.2836L18.9802 62.9059L20.5314 62.9092L20.5291 56.2739L22.9444 56.2744L22.9476 54.8586L16.6616 54.8633L16.6639 56.2231Z" fill="#fff"/>
  <path d="M35.0335 62.8947L36.5985 62.8743L36.6035 54.8597L35.044 54.9114L35.0335 62.8947Z" fill="#fff"/>
  <path d="M24.0612 62.9124L25.6123 62.8781L25.6211 54.866L24.064 54.8502L24.0612 62.9124Z" fill="#fff"/>
  <path d="M24.0154 53.4358L24.1502 54.0591L26.3612 53.7212C26.4088 53.3346 26.2832 53.0568 26.1653 52.6969L24.0154 53.4358Z" fill="#fff"/>
  <path d="M53.7466 62.8879L55.118 62.9147L55.1134 62.471L55.1124 61.9277L55.1116 61.4827L53.7509 61.5459L53.7466 62.8879Z" fill="#fff"/>
</svg>
