<svg width="704" height="189" viewBox="0 0 704 189" fill="none" xmlns="http://www.w3.org/2000/svg">
  <rect width="704" height="189" rx="32" fill="#3E39A8"/>
  <g transform="translate(32 22) rotate(-7 80 70)">
    <rect x="0" y="0" width="154" height="108" rx="8" fill="#F4F5FA"/>
    <rect x="10" y="10" width="134" height="22" fill="#A7D2FF"/>
    <rect x="12" y="14" width="44" height="14" rx="3" fill="#2369AF"/>
    <text x="61" y="26" fill="#1A2B3A" font-family="Arial, Helvetica, sans-serif" font-size="8" font-weight="700">Parlamentares de MS cobram punição</text>
    <text x="12" y="45" fill="#1A2B3A" font-family="Arial, Helvetica, sans-serif" font-size="11" font-weight="700">Revogação de incentivos a empresas</text>
    <rect x="12" y="52" width="58" height="40" fill="#D9DEE8"/>
    <rect x="76" y="52" width="56" height="8" fill="#CCD3E0"/>
    <rect x="76" y="66" width="56" height="8" fill="#CCD3E0"/>
    <rect x="76" y="80" width="44" height="8" fill="#CCD3E0"/>
  </g>
  <text x="240" y="88" fill="#FFFFFF" font-family="Arial, Helvetica, sans-serif" font-size="55" font-weight="800">Edição</text>
  <text x="240" y="136" fill="#FFFFFF" font-family="Arial, Helvetica, sans-serif" font-size="55" font-weight="800">da Semana</text>
  <text x="500" y="95" fill="#FFFFFF" font-family="Arial, Helvetica, sans-serif" font-size="28" font-style="italic" font-weight="700">BAIXE</text>
  <text x="500" y="130" fill="#FFFFFF" font-family="Arial, Helvetica, sans-serif" font-size="28" font-style="italic" font-weight="700">AGORA</text>
  <circle cx="646" cy="94" r="34" stroke="#7FD8FF" stroke-width="6"/>
  <path d="M646 74V103" stroke="#7FD8FF" stroke-width="8" stroke-linecap="round"/>
  <path d="M631 92L646 110L661 92" fill="#7FD8FF"/>
  <path d="M631 121H661" stroke="#7FD8FF" stroke-width="6" stroke-linecap="round"/>
</svg>
