<svg width="704" height="189" viewBox="0 0 704 189" fill="none" xmlns="http://www.w3.org/2000/svg">
  <rect width="704" height="189" rx="32" fill="#172C3E"/>
  <rect x="64" y="39" width="104" height="50" fill="#2C4777"/>
  <rect x="112" y="39" width="26" height="50" fill="#1C9AE0"/>
  <text x="83" y="75" fill="#FFFFFF" font-family="Arial, Helvetica, sans-serif" font-size="34" font-weight="900">JD1</text>
  <rect x="86" y="90" width="136" height="22" fill="#2C84C8"/>
  <rect x="86" y="112" width="136" height="24" fill="#2C84C8"/>
  <text x="104" y="127" fill="#FFFFFF" font-family="Arial, Helvetica, sans-serif" font-size="34" font-weight="900">NO AR</text>
  <circle cx="235" cy="38" r="22" fill="#FF8A12"/>
  <rect x="228" y="52" width="14" height="76" rx="7" fill="#FF8A12"/>
  <path d="M208 32C216 44 216 57 208 69" stroke="#FF8A12" stroke-width="4"/>
  <path d="M262 32C254 44 254 57 262 69" stroke="#FF8A12" stroke-width="4"/>
  <path d="M222 136H248" stroke="#FF8A12" stroke-width="5" stroke-linecap="round"/>
  <path d="M235 128V150" stroke="#FF8A12" stroke-width="5" stroke-linecap="round"/>
  <text x="462" y="82" fill="#F3F6FA" font-family="Arial, Helvetica, sans-serif" font-size="30" font-style="italic" font-weight="700">CLICK</text>
  <text x="430" y="113" fill="#F3F6FA" font-family="Arial, Helvetica, sans-serif" font-size="30" font-style="italic" font-weight="700">E OUÇA</text>
  <circle cx="617" cy="93" r="42" stroke="#F3F6FA" stroke-width="5"/>
  <path d="M607 74L636 93L607 112V74Z" fill="#F3F6FA"/>
</svg>
